<svg width="282" height="242" fill="none" xmlns="http://www.w3.org/2000/svg"><path fill-rule="evenodd" clip-rule="evenodd" d="M203.057 13.368A47.122 47.122 0 0 0 164.053.4a48.107 48.107 0 0 0-33.856 21.774 48.755 48.755 0 0 0-7.661 22.148l1.912-1.916a109.834 109.834 0 0 0-51.882 8.114 47.073 47.073 0 0 0-26.079 34.447 32.256 32.256 0 0 0 4.74 22.96l1.273-3.126a73.404 73.404 0 0 0-48.767 40.784 51.91 51.91 0 0 0-2.065 32.381 40.985 40.985 0 0 0 17.698 23.797 37.018 37.018 0 0 0 31.27 4.47l-2.93-1.663a53.173 53.173 0 0 0 41.998 35.489 101.44 101.44 0 0 0 64.908-8.667 111.772 111.772 0 0 0 32.212-22.87l-1.741.722a99.274 99.274 0 0 0 36.138-4.457 111.201 111.201 0 0 0 30.37-14.359 68.566 68.566 0 0 0 21.186-22.172 47.04 47.04 0 0 0 6.056-27.659 37.262 37.262 0 0 0-14.388-27.032v4.379a44.63 44.63 0 0 0 17.46-38.386 43.2 43.2 0 0 0-15.762-29.268 43.182 43.182 0 0 0-31.88-9.402l1.79 4.325a25.927 25.927 0 0 0 5.466-29.857A24.049 24.049 0 0 0 214.661 2.93a24.488 24.488 0 0 0-14.824 9.312 2.423 2.423 0 0 0 .862 3.288 2.46 2.46 0 0 0 3.286-.86 20.97 20.97 0 0 1 22.987-6.15 19.009 19.009 0 0 1 11.883 20.545 19.467 19.467 0 0 1-6.383 12.564 2.559 2.559 0 0 0 1.79 4.325 39.36 39.36 0 0 1 34.894 14.173 37.13 37.13 0 0 1 5.428 36.284 36.203 36.203 0 0 1-12.697 17.154 2.563 2.563 0 0 0-.512 3.981c14.021 12.465 16.841 33.304 6.635 49.048a65.403 65.403 0 0 1-21.346 21.25 109.088 109.088 0 0 1-30.881 13.498 94.225 94.225 0 0 1-18.065 3.09c-2.962.192-5.936.174-8.901.078a16.55 16.55 0 0 0-4.39-.108 9.622 9.622 0 0 0-3.252 2.806 106.996 106.996 0 0 1-26.014 18.558 98.857 98.857 0 0 1-59.344 10.782 52.808 52.808 0 0 1-41.55-27.406 36.261 36.261 0 0 1-1.969-5.843c-.36-1.26-1.664-2-2.93-1.662C31.613 206.615 13.034 197 6.84 179.628a46.181 46.181 0 0 1 .03-29.779 56.21 56.21 0 0 1 16.836-24.774 81.887 81.887 0 0 1 29.924-16.166 2.15 2.15 0 0 0 1.273-3.132 33.202 33.202 0 0 1 2.514-37.001 55.324 55.324 0 0 1 38.91-21.148 163.133 163.133 0 0 1 28.122-1.397 1.954 1.954 0 0 0 1.913-1.91 45.73 45.73 0 0 1 18.448-32.26 45.087 45.087 0 0 1 36.716-7.107 48.115 48.115 0 0 1 20.084 9.86 1.024 1.024 0 0 0 1.445-1.446h.001Z" fill="#E7C4B2"/></svg>