<svg width="148" height="148" fill="none" xmlns="http://www.w3.org/2000/svg"><path d="m74 111-17.71 34.85.515-39.088L24.93 129.39l18.62-34.372-38.74 5.223 32.46-21.781L.54 65.08l38.865-4.2L13.1 31.963l36.366 14.342L39.61 8.476l25.535 29.6L74 0l8.855 38.075L108.39 8.476l-9.855 37.83 36.366-14.343-26.305 28.917 38.864 4.2-36.73 13.38 32.461 21.781-38.741-5.223 18.621 34.372-31.876-22.628.514 39.088L74 111Z" fill="#EF6D58"/><path fill-rule="evenodd" clip-rule="evenodd" d="M64 63a5 5 0 0 1 10 0 5 5 0 0 1 10 0v.012c0 .14 0 .54-.076.988H88a2 2 0 0 1 2 2v2a2 2 0 0 1-2 2H60a2 2 0 0 1-2-2v-2a2 2 0 0 1 2-2h4.076a5.943 5.943 0 0 1-.076-.988V63Zm2.136 1H72v-1a3 3 0 0 0-6 0c0 .17.004.548.09.86.012.048.027.095.046.14Zm15.728 0H76v-1a3 3 0 1 1 6 0c0 .17-.004.548-.09.86a1.112 1.112 0 0 1-.046.14ZM88 72v15a3 3 0 0 1-3 3h-9V72h12ZM60 87a3 3 0 0 0 3 3h9V72H60v15Z" fill="#fff"/></svg>